<svg width="210" height="44" viewBox="0 0 210 44" fill="none" xmlns="http://www.w3.org/2000/svg">
<g clip-path="url(#clip0_72_2)">
<path d="M192.102 6H3.00004C1.34318 6 3.05176e-05 7.34315 3.05176e-05 9V34C3.05176e-05 35.6569 1.34318 37 3.00003 37H192.102V6Z" fill="url(#paint0_linear_72_2)"/>
<path d="M210 21.5C210 12.9396 203.06 6 194.5 6H2.99999C1.34314 6 0 7.34315 0 9V34C0 35.6569 1.34315 37 3 37H194.5C203.06 37 210 30.0604 210 21.5V21.5Z" fill="url(#paint1_linear_72_2)"/>
<path d="M207.375 37.1245H65.625V37.1253H207.375V37.1245Z" fill="white"/>
<g filter="url(#filter0_d_72_2)">
<path d="M11.4463 26V18.135L11.9273 18.616H8.54729V16.9H16.4383V18.616H13.0583L13.5263 18.135V26H11.4463ZM18.7523 26V19.006H22.3273C23.2026 19.006 23.8873 19.1663 24.3813 19.487C24.8753 19.799 25.1223 20.241 25.1223 20.813C25.1223 21.385 24.8883 21.8357 24.4203 22.165C23.961 22.4857 23.35 22.646 22.5873 22.646L22.7953 22.178C23.6446 22.178 24.2773 22.334 24.6933 22.646C25.118 22.958 25.3303 23.413 25.3303 24.011C25.3303 24.6263 25.0963 25.1117 24.6283 25.467C24.1603 25.8223 23.4453 26 22.4833 26H18.7523ZM20.6113 24.622H22.3143C22.687 24.622 22.9643 24.5613 23.1463 24.44C23.337 24.31 23.4323 24.115 23.4323 23.855C23.4323 23.5863 23.3456 23.3913 23.1723 23.27C22.999 23.14 22.726 23.075 22.3533 23.075H20.6113V24.622ZM20.6113 21.879H22.1453C22.5006 21.879 22.765 21.814 22.9383 21.684C23.1203 21.554 23.2113 21.3677 23.2113 21.125C23.2113 20.8737 23.1203 20.6873 22.9383 20.566C22.765 20.4447 22.5006 20.384 22.1453 20.384H20.6113V21.879ZM31.4152 26.104C30.6699 26.104 30.0069 25.948 29.4262 25.636C28.8542 25.324 28.3992 24.8993 28.0612 24.362C27.7319 23.816 27.5672 23.1963 27.5672 22.503C27.5672 21.801 27.7319 21.1813 28.0612 20.644C28.3992 20.098 28.8542 19.6733 29.4262 19.37C30.0069 19.058 30.6699 18.902 31.4152 18.902C32.1519 18.902 32.8105 19.058 33.3912 19.37C33.9719 19.6733 34.4269 20.0937 34.7562 20.631C35.0855 21.1683 35.2502 21.7923 35.2502 22.503C35.2502 23.1963 35.0855 23.816 34.7562 24.362C34.4269 24.8993 33.9719 25.324 33.3912 25.636C32.8105 25.948 32.1519 26.104 31.4152 26.104ZM31.4152 24.44C31.7532 24.44 32.0565 24.362 32.3252 24.206C32.5939 24.05 32.8062 23.829 32.9622 23.543C33.1182 23.2483 33.1962 22.9017 33.1962 22.503C33.1962 22.0957 33.1182 21.749 32.9622 21.463C32.8062 21.177 32.5939 20.956 32.3252 20.8C32.0565 20.644 31.7532 20.566 31.4152 20.566C31.0772 20.566 30.7739 20.644 30.5052 20.8C30.2365 20.956 30.0199 21.177 29.8552 21.463C29.6992 21.749 29.6212 22.0957 29.6212 22.503C29.6212 22.9017 29.6992 23.2483 29.8552 23.543C30.0199 23.829 30.2365 24.05 30.5052 24.206C30.7739 24.362 31.0772 24.44 31.4152 24.44ZM42.0661 26.104C41.4767 26.104 40.9611 25.974 40.5191 25.714C40.0771 25.454 39.7304 25.0597 39.4791 24.531C39.2364 23.9937 39.1151 23.3177 39.1151 22.503C39.1151 21.6797 39.2321 21.0037 39.4661 20.475C39.7001 19.9463 40.0381 19.552 40.4801 19.292C40.9221 19.032 41.4507 18.902 42.0661 18.902C42.7247 18.902 43.3141 19.0537 43.8341 19.357C44.3627 19.6517 44.7787 20.0677 45.0821 20.605C45.3941 21.1423 45.5501 21.775 45.5501 22.503C45.5501 23.2397 45.3941 23.8767 45.0821 24.414C44.7787 24.9513 44.3627 25.3673 43.8341 25.662C43.3141 25.9567 42.7247 26.104 42.0661 26.104ZM37.9321 28.522V19.006H39.8691V20.436L39.8301 22.516L39.9601 24.583V28.522H37.9321ZM41.7151 24.44C42.0531 24.44 42.3521 24.362 42.6121 24.206C42.8807 24.05 43.0931 23.829 43.2491 23.543C43.4137 23.2483 43.4961 22.9017 43.4961 22.503C43.4961 22.0957 43.4137 21.749 43.2491 21.463C43.0931 21.177 42.8807 20.956 42.6121 20.8C42.3521 20.644 42.0531 20.566 41.7151 20.566C41.3771 20.566 41.0737 20.644 40.8051 20.8C40.5364 20.956 40.3241 21.177 40.1681 21.463C40.0121 21.749 39.9341 22.0957 39.9341 22.503C39.9341 22.9017 40.0121 23.2483 40.1681 23.543C40.3241 23.829 40.5364 24.05 40.8051 24.206C41.0737 24.362 41.3771 24.44 41.7151 24.44ZM52.6784 23.322C52.3924 23.478 52.0761 23.6037 51.7294 23.699C51.3828 23.7943 51.0014 23.842 50.5854 23.842C49.6668 23.842 48.9604 23.634 48.4664 23.218C47.9724 22.7933 47.7254 22.1217 47.7254 21.203V19.006H49.7534V21.073C49.7534 21.5063 49.8661 21.8183 50.0914 22.009C50.3168 22.191 50.6331 22.282 51.0404 22.282C51.3351 22.282 51.6168 22.2473 51.8854 22.178C52.1628 22.1087 52.4271 22.009 52.6784 21.879V23.322ZM52.5354 26V19.006H54.5634V26H52.5354ZM61.2297 26.104C60.4324 26.104 59.7304 25.948 59.1237 25.636C58.5257 25.324 58.062 24.8993 57.7327 24.362C57.4034 23.816 57.2387 23.1963 57.2387 22.503C57.2387 21.801 57.399 21.1813 57.7197 20.644C58.049 20.098 58.4954 19.6733 59.0587 19.37C59.622 19.058 60.259 18.902 60.9697 18.902C61.6544 18.902 62.2697 19.0493 62.8157 19.344C63.3704 19.63 63.808 20.046 64.1287 20.592C64.4494 21.1293 64.6097 21.775 64.6097 22.529C64.6097 22.607 64.6054 22.698 64.5967 22.802C64.588 22.8973 64.5794 22.9883 64.5707 23.075H58.8897V21.892H63.5047L62.7247 22.243C62.7247 21.879 62.651 21.5627 62.5037 21.294C62.3564 21.0253 62.1527 20.8173 61.8927 20.67C61.6327 20.514 61.3294 20.436 60.9827 20.436C60.636 20.436 60.3284 20.514 60.0597 20.67C59.7997 20.8173 59.596 21.0297 59.4487 21.307C59.3014 21.5757 59.2277 21.8963 59.2277 22.269V22.581C59.2277 22.9623 59.31 23.3003 59.4747 23.595C59.648 23.881 59.8864 24.102 60.1897 24.258C60.5017 24.4053 60.8657 24.479 61.2817 24.479C61.6544 24.479 61.9794 24.4227 62.2567 24.31C62.5427 24.1973 62.8027 24.0283 63.0367 23.803L64.1157 24.973C63.795 25.337 63.392 25.6187 62.9067 25.818C62.4214 26.0087 61.8624 26.104 61.2297 26.104ZM70.7922 26.104C70.0382 26.104 69.3665 25.9523 68.7772 25.649C68.1879 25.337 67.7242 24.908 67.3862 24.362C67.0569 23.816 66.8922 23.1963 66.8922 22.503C66.8922 21.801 67.0569 21.1813 67.3862 20.644C67.7242 20.098 68.1879 19.6733 68.7772 19.37C69.3665 19.058 70.0382 18.902 70.7922 18.902C71.5289 18.902 72.1702 19.058 72.7162 19.37C73.2622 19.6733 73.6652 20.111 73.9252 20.683L72.3522 21.528C72.1702 21.1987 71.9405 20.956 71.6632 20.8C71.3945 20.644 71.0999 20.566 70.7792 20.566C70.4325 20.566 70.1205 20.644 69.8432 20.8C69.5659 20.956 69.3449 21.177 69.1802 21.463C69.0242 21.749 68.9462 22.0957 68.9462 22.503C68.9462 22.9103 69.0242 23.257 69.1802 23.543C69.3449 23.829 69.5659 24.05 69.8432 24.206C70.1205 24.362 70.4325 24.44 70.7792 24.44C71.0999 24.44 71.3945 24.3663 71.6632 24.219C71.9405 24.063 72.1702 23.816 72.3522 23.478L73.9252 24.336C73.6652 24.8993 73.2622 25.337 72.7162 25.649C72.1702 25.9523 71.5289 26.104 70.7922 26.104ZM77.9399 26V20.202L78.3949 20.67H75.5739V19.006H82.3209V20.67H79.4999L79.9549 20.202V26H77.9399ZM84.7019 26V19.006H88.2769C89.1522 19.006 89.8369 19.1663 90.3309 19.487C90.8249 19.799 91.0719 20.241 91.0719 20.813C91.0719 21.385 90.8379 21.8357 90.3699 22.165C89.9106 22.4857 89.2996 22.646 88.5369 22.646L88.7449 22.178C89.5942 22.178 90.2269 22.334 90.6429 22.646C91.0676 22.958 91.2799 23.413 91.2799 24.011C91.2799 24.6263 91.0459 25.1117 90.5779 25.467C90.1099 25.8223 89.3949 26 88.4329 26H84.7019ZM86.5609 24.622H88.2639C88.6366 24.622 88.9139 24.5613 89.0959 24.44C89.2866 24.31 89.3819 24.115 89.3819 23.855C89.3819 23.5863 89.2952 23.3913 89.1219 23.27C88.9486 23.14 88.6756 23.075 88.3029 23.075H86.5609V24.622ZM86.5609 21.879H88.0949C88.4502 21.879 88.7146 21.814 88.8879 21.684C89.0699 21.554 89.1609 21.3677 89.1609 21.125C89.1609 20.8737 89.0699 20.6873 88.8879 20.566C88.7146 20.4447 88.4502 20.384 88.0949 20.384H86.5609V21.879ZM97.3648 26.104C96.6195 26.104 95.9565 25.948 95.3758 25.636C94.8038 25.324 94.3488 24.8993 94.0108 24.362C93.6815 23.816 93.5168 23.1963 93.5168 22.503C93.5168 21.801 93.6815 21.1813 94.0108 20.644C94.3488 20.098 94.8038 19.6733 95.3758 19.37C95.9565 19.058 96.6195 18.902 97.3648 18.902C98.1015 18.902 98.7601 19.058 99.3408 19.37C99.9215 19.6733 100.376 20.0937 100.706 20.631C101.035 21.1683 101.2 21.7923 101.2 22.503C101.2 23.1963 101.035 23.816 100.706 24.362C100.376 24.8993 99.9215 25.324 99.3408 25.636C98.7601 25.948 98.1015 26.104 97.3648 26.104ZM97.3648 24.44C97.7028 24.44 98.0061 24.362 98.2748 24.206C98.5435 24.05 98.7558 23.829 98.9118 23.543C99.0678 23.2483 99.1458 22.9017 99.1458 22.503C99.1458 22.0957 99.0678 21.749 98.9118 21.463C98.7558 21.177 98.5435 20.956 98.2748 20.8C98.0061 20.644 97.7028 20.566 97.3648 20.566C97.0268 20.566 96.7235 20.644 96.4548 20.8C96.1861 20.956 95.9695 21.177 95.8048 21.463C95.6488 21.749 95.5708 22.0957 95.5708 22.503C95.5708 22.9017 95.6488 23.2483 95.8048 23.543C95.9695 23.829 96.1861 24.05 96.4548 24.206C96.7235 24.362 97.0268 24.44 97.3648 24.44Z" fill="white"/>
</g>
</g>
<defs>
<filter id="filter0_d_72_2" x="1.54724" y="10.9" width="108.653" height="27.622" filterUnits="userSpaceOnUse" color-interpolation-filters="sRGB">
<feFlood flood-opacity="0" result="BackgroundImageFix"/>
<feColorMatrix in="SourceAlpha" type="matrix" values="0 0 0 0 0 0 0 0 0 0 0 0 0 0 0 0 0 0 127 0" result="hardAlpha"/>
<feOffset dx="1" dy="2"/>
<feGaussianBlur stdDeviation="4"/>
<feComposite in2="hardAlpha" operator="out"/>
<feColorMatrix type="matrix" values="0 0 0 0 0 0 0 0 0 0 0 0 0 0 0 0 0 0 0.25 0"/>
<feBlend mode="normal" in2="BackgroundImageFix" result="effect1_dropShadow_72_2"/>
<feBlend mode="normal" in="SourceGraphic" in2="effect1_dropShadow_72_2" result="shape"/>
</filter>
<linearGradient id="paint0_linear_72_2" x1="3.05176e-05" y1="21.5" x2="192.102" y2="21.5" gradientUnits="userSpaceOnUse">
<stop stop-color="#3264C9"/>
<stop offset="1" stop-color="#18635E" stop-opacity="0"/>
</linearGradient>
<linearGradient id="paint1_linear_72_2" x1="210" y1="21.5" x2="0" y2="21.5" gradientUnits="userSpaceOnUse">
<stop stop-color="#FFFFFF"/>
<stop offset="1" stop-color="white" stop-opacity="0"/>
</linearGradient>
<clipPath id="clip0_72_2">
<rect width="210" height="44" fill="white"/>
</clipPath>
</defs>
</svg>
