<svg width="210" height="44" viewBox="0 0 210 44" fill="none" xmlns="http://www.w3.org/2000/svg">
<g clip-path="url(#clip0_72_2)">
<path d="M192.102 6H3.00004C1.34318 6 3.05176e-05 7.34315 3.05176e-05 9V34C3.05176e-05 35.6569 1.34318 37 3.00003 37H192.102V6Z" fill="url(#paint0_linear_72_2)"/>
<path d="M210 21.5C210 12.9396 203.06 6 194.5 6H2.99999C1.34314 6 0 7.34315 0 9V34C0 35.6569 1.34315 37 3 37H194.5C203.06 37 210 30.0604 210 21.5V21.5Z" fill="url(#paint1_linear_72_2)"/>
<path d="M207.375 37.1245H65.625V37.1253H207.375V37.1245Z" fill="white"/>
<g filter="url(#filter0_d_72_2)">
<path d="M13.7863 26.156C13.0843 26.156 12.43 26.0433 11.8233 25.818C11.2253 25.584 10.7053 25.2547 10.2633 24.83C9.82129 24.4053 9.47463 23.907 9.22329 23.335C8.98063 22.763 8.85929 22.1347 8.85929 21.45C8.85929 20.7653 8.98063 20.137 9.22329 19.565C9.47463 18.993 9.82129 18.4947 10.2633 18.07C10.714 17.6453 11.2383 17.3203 11.8363 17.095C12.4343 16.861 13.0886 16.744 13.7993 16.744C14.588 16.744 15.2986 16.8827 15.9313 17.16C16.5726 17.4287 17.11 17.8273 17.5433 18.356L16.1913 19.604C15.8793 19.2487 15.5326 18.9843 15.1513 18.811C14.77 18.629 14.354 18.538 13.9033 18.538C13.4786 18.538 13.0886 18.6073 12.7333 18.746C12.378 18.8847 12.0703 19.084 11.8103 19.344C11.5503 19.604 11.3466 19.9117 11.1993 20.267C11.0606 20.6223 10.9913 21.0167 10.9913 21.45C10.9913 21.8833 11.0606 22.2777 11.1993 22.633C11.3466 22.9883 11.5503 23.296 11.8103 23.556C12.0703 23.816 12.378 24.0153 12.7333 24.154C13.0886 24.2927 13.4786 24.362 13.9033 24.362C14.354 24.362 14.77 24.2753 15.1513 24.102C15.5326 23.92 15.8793 23.647 16.1913 23.283L17.5433 24.531C17.11 25.0597 16.5726 25.4627 15.9313 25.74C15.2986 26.0173 14.5836 26.156 13.7863 26.156ZM23.0947 26.104C22.3494 26.104 21.6864 25.948 21.1057 25.636C20.5337 25.324 20.0787 24.8993 19.7407 24.362C19.4114 23.816 19.2467 23.1963 19.2467 22.503C19.2467 21.801 19.4114 21.1813 19.7407 20.644C20.0787 20.098 20.5337 19.6733 21.1057 19.37C21.6864 19.058 22.3494 18.902 23.0947 18.902C23.8314 18.902 24.49 19.058 25.0707 19.37C25.6514 19.6733 26.1064 20.0937 26.4357 20.631C26.765 21.1683 26.9297 21.7923 26.9297 22.503C26.9297 23.1963 26.765 23.816 26.4357 24.362C26.1064 24.8993 25.6514 25.324 25.0707 25.636C24.49 25.948 23.8314 26.104 23.0947 26.104ZM23.0947 24.44C23.4327 24.44 23.736 24.362 24.0047 24.206C24.2734 24.05 24.4857 23.829 24.6417 23.543C24.7977 23.2483 24.8757 22.9017 24.8757 22.503C24.8757 22.0957 24.7977 21.749 24.6417 21.463C24.4857 21.177 24.2734 20.956 24.0047 20.8C23.736 20.644 23.4327 20.566 23.0947 20.566C22.7567 20.566 22.4534 20.644 22.1847 20.8C21.916 20.956 21.6994 21.177 21.5347 21.463C21.3787 21.749 21.3007 22.0957 21.3007 22.503C21.3007 22.9017 21.3787 23.2483 21.5347 23.543C21.6994 23.829 21.916 24.05 22.1847 24.206C22.4534 24.362 22.7567 24.44 23.0947 24.44ZM31.8636 26.13C31.3263 26.13 30.7889 26.0737 30.2516 25.961C29.7229 25.8483 29.2333 25.6793 28.7826 25.454L29.3286 24.037C29.6839 24.2103 30.0696 24.3447 30.4856 24.44C30.9103 24.5267 31.3393 24.57 31.7726 24.57C32.0846 24.57 32.3533 24.5397 32.5786 24.479C32.8126 24.4097 32.9903 24.3143 33.1116 24.193C33.2329 24.0717 33.2936 23.9243 33.2936 23.751C33.2936 23.5257 33.1983 23.3567 33.0076 23.244C32.8169 23.1227 32.5396 23.062 32.1756 23.062H30.7456V21.801H32.0066C32.2406 21.801 32.4399 21.775 32.6046 21.723C32.7693 21.671 32.8906 21.5973 32.9686 21.502C33.0553 21.398 33.0986 21.2767 33.0986 21.138C33.0986 20.9907 33.0466 20.865 32.9426 20.761C32.8386 20.657 32.6869 20.579 32.4876 20.527C32.2883 20.4663 32.0369 20.436 31.7336 20.436C31.3869 20.436 31.0273 20.4793 30.6546 20.566C30.2819 20.644 29.9006 20.761 29.5106 20.917L29.0166 19.513C29.4759 19.3223 29.9309 19.1707 30.3816 19.058C30.8323 18.9453 31.2786 18.8847 31.7206 18.876C32.3706 18.8587 32.9556 18.928 33.4756 19.084C33.9956 19.24 34.4029 19.4653 34.6976 19.76C35.0009 20.0547 35.1526 20.4143 35.1526 20.839C35.1526 21.177 35.0486 21.4803 34.8406 21.749C34.6413 22.0177 34.3639 22.23 34.0086 22.386C33.6533 22.5333 33.2546 22.607 32.8126 22.607L32.8646 22.204C33.6359 22.204 34.2426 22.36 34.6846 22.672C35.1266 22.9753 35.3476 23.3913 35.3476 23.92C35.3476 24.3707 35.1916 24.765 34.8796 25.103C34.5763 25.4323 34.1603 25.688 33.6316 25.87C33.1116 26.0433 32.5223 26.13 31.8636 26.13ZM42.9074 25.09V20.67H40.6194L40.5804 21.567C40.5631 21.9397 40.5414 22.295 40.5154 22.633C40.4894 22.971 40.4374 23.2787 40.3594 23.556C40.2901 23.8247 40.1861 24.0543 40.0474 24.245C39.9087 24.427 39.7224 24.5527 39.4884 24.622L37.4864 24.336C37.7377 24.336 37.9414 24.2623 38.0974 24.115C38.2534 23.959 38.3747 23.7467 38.4614 23.478C38.5481 23.2007 38.6131 22.8887 38.6564 22.542C38.6997 22.1867 38.7301 21.814 38.7474 21.424L38.8384 19.006H44.9354V25.09H42.9074ZM37.2524 27.508V24.336H45.9364V27.508H44.0514V26H39.1374V27.508H37.2524ZM52.6986 26V24.635L52.5686 24.336V21.892C52.5686 21.4587 52.4343 21.1207 52.1656 20.878C51.9056 20.6353 51.5026 20.514 50.9566 20.514C50.584 20.514 50.2156 20.5747 49.8516 20.696C49.4963 20.8087 49.193 20.9647 48.9416 21.164L48.2136 19.747C48.595 19.4783 49.0543 19.2703 49.5916 19.123C50.129 18.9757 50.675 18.902 51.2296 18.902C52.2956 18.902 53.1233 19.1533 53.7126 19.656C54.302 20.1587 54.5966 20.943 54.5966 22.009V26H52.6986ZM50.5666 26.104C50.0206 26.104 49.5526 26.013 49.1626 25.831C48.7726 25.6403 48.4736 25.3847 48.2656 25.064C48.0576 24.7433 47.9536 24.3837 47.9536 23.985C47.9536 23.569 48.0533 23.205 48.2526 22.893C48.4606 22.581 48.7856 22.3383 49.2276 22.165C49.6696 21.983 50.246 21.892 50.9566 21.892H52.8156V23.075H51.1776C50.701 23.075 50.3716 23.153 50.1896 23.309C50.0163 23.465 49.9296 23.66 49.9296 23.894C49.9296 24.154 50.0293 24.362 50.2286 24.518C50.4366 24.6653 50.7183 24.739 51.0736 24.739C51.4116 24.739 51.715 24.661 51.9836 24.505C52.2523 24.3403 52.4473 24.102 52.5686 23.79L52.8806 24.726C52.7333 25.1767 52.4646 25.519 52.0746 25.753C51.6846 25.987 51.182 26.104 50.5666 26.104ZM57.6583 26V19.006H59.6733V21.736H62.7153V19.006H64.7433V26H62.7153V23.387H59.6733V26H57.6583ZM67.9847 26V19.006H69.9997V23.166L73.4057 19.006H75.2647V26H73.2497V21.84L69.8567 26H67.9847ZM81.9332 26.104C81.1359 26.104 80.4339 25.948 79.8272 25.636C79.2292 25.324 78.7655 24.8993 78.4362 24.362C78.1069 23.816 77.9422 23.1963 77.9422 22.503C77.9422 21.801 78.1025 21.1813 78.4232 20.644C78.7525 20.098 79.1989 19.6733 79.7622 19.37C80.3255 19.058 80.9625 18.902 81.6732 18.902C82.3579 18.902 82.9732 19.0493 83.5192 19.344C84.0739 19.63 84.5115 20.046 84.8322 20.592C85.1529 21.1293 85.3132 21.775 85.3132 22.529C85.3132 22.607 85.3089 22.698 85.3002 22.802C85.2915 22.8973 85.2829 22.9883 85.2742 23.075H79.5932V21.892H84.2082L83.4282 22.243C83.4282 21.879 83.3545 21.5627 83.2072 21.294C83.0599 21.0253 82.8562 20.8173 82.5962 20.67C82.3362 20.514 82.0329 20.436 81.6862 20.436C81.3395 20.436 81.0319 20.514 80.7632 20.67C80.5032 20.8173 80.2995 21.0297 80.1522 21.307C80.0049 21.5757 79.9312 21.8963 79.9312 22.269V22.581C79.9312 22.9623 80.0135 23.3003 80.1782 23.595C80.3515 23.881 80.5899 24.102 80.8932 24.258C81.2052 24.4053 81.5692 24.479 81.9852 24.479C82.3579 24.479 82.6829 24.4227 82.9602 24.31C83.2462 24.1973 83.5062 24.0283 83.7402 23.803L84.8192 24.973C84.4985 25.337 84.0955 25.6187 83.6102 25.818C83.1249 26.0087 82.5659 26.104 81.9332 26.104ZM96.4774 26.104C95.7234 26.104 95.0517 25.9523 94.4624 25.649C93.873 25.337 93.4094 24.908 93.0714 24.362C92.742 23.816 92.5774 23.1963 92.5774 22.503C92.5774 21.801 92.742 21.1813 93.0714 20.644C93.4094 20.098 93.873 19.6733 94.4624 19.37C95.0517 19.058 95.7234 18.902 96.4774 18.902C97.214 18.902 97.8554 19.058 98.4014 19.37C98.9474 19.6733 99.3504 20.111 99.6104 20.683L98.0374 21.528C97.8554 21.1987 97.6257 20.956 97.3484 20.8C97.0797 20.644 96.785 20.566 96.4644 20.566C96.1177 20.566 95.8057 20.644 95.5284 20.8C95.251 20.956 95.03 21.177 94.8654 21.463C94.7094 21.749 94.6314 22.0957 94.6314 22.503C94.6314 22.9103 94.7094 23.257 94.8654 23.543C95.03 23.829 95.251 24.05 95.5284 24.206C95.8057 24.362 96.1177 24.44 96.4644 24.44C96.785 24.44 97.0797 24.3663 97.3484 24.219C97.6257 24.063 97.8554 23.816 98.0374 23.478L99.6104 24.336C99.3504 24.8993 98.9474 25.337 98.4014 25.649C97.8554 25.9523 97.214 26.104 96.4774 26.104ZM105.473 26.104C104.676 26.104 103.974 25.948 103.367 25.636C102.769 25.324 102.305 24.8993 101.976 24.362C101.647 23.816 101.482 23.1963 101.482 22.503C101.482 21.801 101.642 21.1813 101.963 20.644C102.292 20.098 102.739 19.6733 103.302 19.37C103.865 19.058 104.502 18.902 105.213 18.902C105.898 18.902 106.513 19.0493 107.059 19.344C107.614 19.63 108.051 20.046 108.372 20.592C108.693 21.1293 108.853 21.775 108.853 22.529C108.853 22.607 108.849 22.698 108.84 22.802C108.831 22.8973 108.823 22.9883 108.814 23.075H103.133V21.892H107.748L106.968 22.243C106.968 21.879 106.894 21.5627 106.747 21.294C106.6 21.0253 106.396 20.8173 106.136 20.67C105.876 20.514 105.573 20.436 105.226 20.436C104.879 20.436 104.572 20.514 104.303 20.67C104.043 20.8173 103.839 21.0297 103.692 21.307C103.545 21.5757 103.471 21.8963 103.471 22.269V22.581C103.471 22.9623 103.553 23.3003 103.718 23.595C103.891 23.881 104.13 24.102 104.433 24.258C104.745 24.4053 105.109 24.479 105.525 24.479C105.898 24.479 106.223 24.4227 106.5 24.31C106.786 24.1973 107.046 24.0283 107.28 23.803L108.359 24.973C108.038 25.337 107.635 25.6187 107.15 25.818C106.665 26.0087 106.106 26.104 105.473 26.104ZM115.828 26.104C115.239 26.104 114.723 25.974 114.281 25.714C113.839 25.454 113.493 25.0597 113.241 24.531C112.999 23.9937 112.877 23.3177 112.877 22.503C112.877 21.6797 112.994 21.0037 113.228 20.475C113.462 19.9463 113.8 19.552 114.242 19.292C114.684 19.032 115.213 18.902 115.828 18.902C116.487 18.902 117.076 19.0537 117.596 19.357C118.125 19.6517 118.541 20.0677 118.844 20.605C119.156 21.1423 119.312 21.775 119.312 22.503C119.312 23.2397 119.156 23.8767 118.844 24.414C118.541 24.9513 118.125 25.3673 117.596 25.662C117.076 25.9567 116.487 26.104 115.828 26.104ZM111.694 28.522V19.006H113.631V20.436L113.592 22.516L113.722 24.583V28.522H111.694ZM115.477 24.44C115.815 24.44 116.114 24.362 116.374 24.206C116.643 24.05 116.855 23.829 117.011 23.543C117.176 23.2483 117.258 22.9017 117.258 22.503C117.258 22.0957 117.176 21.749 117.011 21.463C116.855 21.177 116.643 20.956 116.374 20.8C116.114 20.644 115.815 20.566 115.477 20.566C115.139 20.566 114.836 20.644 114.567 20.8C114.299 20.956 114.086 21.177 113.93 21.463C113.774 21.749 113.696 22.0957 113.696 22.503C113.696 22.9017 113.774 23.2483 113.93 23.543C114.086 23.829 114.299 24.05 114.567 24.206C114.836 24.362 115.139 24.44 115.477 24.44ZM122.034 26V19.006H125.609C126.484 19.006 127.169 19.1663 127.663 19.487C128.157 19.799 128.404 20.241 128.404 20.813C128.404 21.385 128.17 21.8357 127.702 22.165C127.242 22.4857 126.631 22.646 125.869 22.646L126.077 22.178C126.926 22.178 127.559 22.334 127.975 22.646C128.399 22.958 128.612 23.413 128.612 24.011C128.612 24.6263 128.378 25.1117 127.91 25.467C127.442 25.8223 126.727 26 125.765 26H122.034ZM123.893 24.622H125.596C125.968 24.622 126.246 24.5613 126.428 24.44C126.618 24.31 126.714 24.115 126.714 23.855C126.714 23.5863 126.627 23.3913 126.454 23.27C126.28 23.14 126.007 23.075 125.635 23.075H123.893V24.622ZM123.893 21.879H125.427C125.782 21.879 126.046 21.814 126.22 21.684C126.402 21.554 126.493 21.3677 126.493 21.125C126.493 20.8737 126.402 20.6873 126.22 20.566C126.046 20.4447 125.782 20.384 125.427 20.384H123.893V21.879ZM134.84 26.104C134.042 26.104 133.34 25.948 132.734 25.636C132.136 25.324 131.672 24.8993 131.343 24.362C131.013 23.816 130.849 23.1963 130.849 22.503C130.849 21.801 131.009 21.1813 131.33 20.644C131.659 20.098 132.105 19.6733 132.669 19.37C133.232 19.058 133.869 18.902 134.58 18.902C135.264 18.902 135.88 19.0493 136.426 19.344C136.98 19.63 137.418 20.046 137.739 20.592C138.059 21.1293 138.22 21.775 138.22 22.529C138.22 22.607 138.215 22.698 138.207 22.802C138.198 22.8973 138.189 22.9883 138.181 23.075H132.5V21.892H137.115L136.335 22.243C136.335 21.879 136.261 21.5627 136.114 21.294C135.966 21.0253 135.763 20.8173 135.503 20.67C135.243 20.514 134.939 20.436 134.593 20.436C134.246 20.436 133.938 20.514 133.67 20.67C133.41 20.8173 133.206 21.0297 133.059 21.307C132.911 21.5757 132.838 21.8963 132.838 22.269V22.581C132.838 22.9623 132.92 23.3003 133.085 23.595C133.258 23.881 133.496 24.102 133.8 24.258C134.112 24.4053 134.476 24.479 134.892 24.479C135.264 24.479 135.589 24.4227 135.867 24.31C136.153 24.1973 136.413 24.0283 136.647 23.803L137.726 24.973C137.405 25.337 137.002 25.6187 136.517 25.818C136.031 26.0087 135.472 26.104 134.84 26.104ZM145.195 26.104C144.606 26.104 144.09 25.974 143.648 25.714C143.206 25.454 142.86 25.0597 142.608 24.531C142.366 23.9937 142.244 23.3177 142.244 22.503C142.244 21.6797 142.361 21.0037 142.595 20.475C142.829 19.9463 143.167 19.552 143.609 19.292C144.051 19.032 144.58 18.902 145.195 18.902C145.854 18.902 146.443 19.0537 146.963 19.357C147.492 19.6517 147.908 20.0677 148.211 20.605C148.523 21.1423 148.679 21.775 148.679 22.503C148.679 23.2397 148.523 23.8767 148.211 24.414C147.908 24.9513 147.492 25.3673 146.963 25.662C146.443 25.9567 145.854 26.104 145.195 26.104ZM141.061 28.522V19.006H142.998V20.436L142.959 22.516L143.089 24.583V28.522H141.061ZM144.844 24.44C145.182 24.44 145.481 24.362 145.741 24.206C146.01 24.05 146.222 23.829 146.378 23.543C146.543 23.2483 146.625 22.9017 146.625 22.503C146.625 22.0957 146.543 21.749 146.378 21.463C146.222 21.177 146.01 20.956 145.741 20.8C145.481 20.644 145.182 20.566 144.844 20.566C144.506 20.566 144.203 20.644 143.934 20.8C143.666 20.956 143.453 21.177 143.297 21.463C143.141 21.749 143.063 22.0957 143.063 22.503C143.063 22.9017 143.141 23.2483 143.297 23.543C143.453 23.829 143.666 24.05 143.934 24.206C144.203 24.362 144.506 24.44 144.844 24.44ZM154.677 26.104C153.931 26.104 153.268 25.948 152.688 25.636C152.116 25.324 151.661 24.8993 151.323 24.362C150.993 23.816 150.829 23.1963 150.829 22.503C150.829 21.801 150.993 21.1813 151.323 20.644C151.661 20.098 152.116 19.6733 152.688 19.37C153.268 19.058 153.931 18.902 154.677 18.902C155.413 18.902 156.072 19.058 156.653 19.37C157.233 19.6733 157.688 20.0937 158.018 20.631C158.347 21.1683 158.512 21.7923 158.512 22.503C158.512 23.1963 158.347 23.816 158.018 24.362C157.688 24.8993 157.233 25.324 156.653 25.636C156.072 25.948 155.413 26.104 154.677 26.104ZM154.677 24.44C155.015 24.44 155.318 24.362 155.587 24.206C155.855 24.05 156.068 23.829 156.224 23.543C156.38 23.2483 156.458 22.9017 156.458 22.503C156.458 22.0957 156.38 21.749 156.224 21.463C156.068 21.177 155.855 20.956 155.587 20.8C155.318 20.644 155.015 20.566 154.677 20.566C154.339 20.566 154.035 20.644 153.767 20.8C153.498 20.956 153.281 21.177 153.117 21.463C152.961 21.749 152.883 22.0957 152.883 22.503C152.883 22.9017 152.961 23.2483 153.117 23.543C153.281 23.829 153.498 24.05 153.767 24.206C154.035 24.362 154.339 24.44 154.677 24.44ZM161.206 26V19.006H164.781C165.657 19.006 166.341 19.1663 166.835 19.487C167.329 19.799 167.576 20.241 167.576 20.813C167.576 21.385 167.342 21.8357 166.874 22.165C166.415 22.4857 165.804 22.646 165.041 22.646L165.249 22.178C166.099 22.178 166.731 22.334 167.147 22.646C167.572 22.958 167.784 23.413 167.784 24.011C167.784 24.6263 167.55 25.1117 167.082 25.467C166.614 25.8223 165.899 26 164.937 26H161.206ZM163.065 24.622H164.768C165.141 24.622 165.418 24.5613 165.6 24.44C165.791 24.31 165.886 24.115 165.886 23.855C165.886 23.5863 165.8 23.3913 165.626 23.27C165.453 23.14 165.18 23.075 164.807 23.075H163.065V24.622ZM163.065 21.879H164.599C164.955 21.879 165.219 21.814 165.392 21.684C165.574 21.554 165.665 21.3677 165.665 21.125C165.665 20.8737 165.574 20.6873 165.392 20.566C165.219 20.4447 164.955 20.384 164.599 20.384H163.065V21.879Z" fill="white"/>
</g>
</g>
<defs>
<filter id="filter0_d_72_2" x="1.85925" y="10.744" width="174.925" height="27.778" filterUnits="userSpaceOnUse" color-interpolation-filters="sRGB">
<feFlood flood-opacity="0" result="BackgroundImageFix"/>
<feColorMatrix in="SourceAlpha" type="matrix" values="0 0 0 0 0 0 0 0 0 0 0 0 0 0 0 0 0 0 127 0" result="hardAlpha"/>
<feOffset dx="1" dy="2"/>
<feGaussianBlur stdDeviation="4"/>
<feComposite in2="hardAlpha" operator="out"/>
<feColorMatrix type="matrix" values="0 0 0 0 0 0 0 0 0 0 0 0 0 0 0 0 0 0 0.25 0"/>
<feBlend mode="normal" in2="BackgroundImageFix" result="effect1_dropShadow_72_2"/>
<feBlend mode="normal" in="SourceGraphic" in2="effect1_dropShadow_72_2" result="shape"/>
</filter>
<linearGradient id="paint0_linear_72_2" x1="3.05176e-05" y1="21.5" x2="192.102" y2="21.5" gradientUnits="userSpaceOnUse">
<stop stop-color="#32C9BF"/>
<stop offset="1" stop-color="#18635E" stop-opacity="0"/>
</linearGradient>
<linearGradient id="paint1_linear_72_2" x1="210" y1="21.5" x2="0" y2="21.5" gradientUnits="userSpaceOnUse">
<stop stop-color="#CDD1D1"/>
<stop offset="1" stop-color="white" stop-opacity="0"/>
</linearGradient>
<clipPath id="clip0_72_2">
<rect width="210" height="44" fill="white"/>
</clipPath>
</defs>
</svg>
