<svg width="210" height="44" viewBox="0 0 210 44" fill="none" xmlns="http://www.w3.org/2000/svg">
<g clip-path="url(#clip0_72_2)">
<path d="M192.102 6H3.00004C1.34318 6 3.05176e-05 7.34315 3.05176e-05 9V34C3.05176e-05 35.6569 1.34318 37 3.00003 37H192.102V6Z" fill="url(#paint0_linear_72_2)"/>
<path d="M210 21.5C210 12.9396 203.06 6 194.5 6H2.99999C1.34314 6 0 7.34315 0 9V34C0 35.6569 1.34315 37 3 37H194.5C203.06 37 210 30.0604 210 21.5V21.5Z" fill="url(#paint1_linear_72_2)"/>
<path d="M207.375 37.1245H65.625V37.1253H207.375V37.1245Z" fill="white"/>
<g filter="url(#filter0_d_72_2)">
<path d="M9.48329 26V16.9H11.2253L15.0993 23.322H14.1763L17.9853 16.9H19.7273L19.7403 26H17.7643L17.7513 19.929H18.1283L15.0733 25.038H14.1373L11.0173 19.929H11.4593V26H9.48329ZM27.3309 26V24.635L27.2009 24.336V21.892C27.2009 21.4587 27.0665 21.1207 26.7979 20.878C26.5379 20.6353 26.1349 20.514 25.5889 20.514C25.2162 20.514 24.8479 20.5747 24.4839 20.696C24.1285 20.8087 23.8252 20.9647 23.5739 21.164L22.8459 19.747C23.2272 19.4783 23.6865 19.2703 24.2239 19.123C24.7612 18.9757 25.3072 18.902 25.8619 18.902C26.9279 18.902 27.7555 19.1533 28.3449 19.656C28.9342 20.1587 29.2289 20.943 29.2289 22.009V26H27.3309ZM25.1989 26.104C24.6529 26.104 24.1849 26.013 23.7949 25.831C23.4049 25.6403 23.1059 25.3847 22.8979 25.064C22.6899 24.7433 22.5859 24.3837 22.5859 23.985C22.5859 23.569 22.6855 23.205 22.8849 22.893C23.0929 22.581 23.4179 22.3383 23.8599 22.165C24.3019 21.983 24.8782 21.892 25.5889 21.892H27.4479V23.075H25.8099C25.3332 23.075 25.0039 23.153 24.8219 23.309C24.6485 23.465 24.5619 23.66 24.5619 23.894C24.5619 24.154 24.6615 24.362 24.8609 24.518C25.0689 24.6653 25.3505 24.739 25.7059 24.739C26.0439 24.739 26.3472 24.661 26.6159 24.505C26.8845 24.3403 27.0795 24.102 27.2009 23.79L27.5129 24.726C27.3655 25.1767 27.0969 25.519 26.7069 25.753C26.3169 25.987 25.8142 26.104 25.1989 26.104ZM32.2906 26V19.006H37.8936V20.67H33.8506L34.3056 20.228V26H32.2906ZM44.4543 26V24.635L44.3243 24.336V21.892C44.3243 21.4587 44.19 21.1207 43.9213 20.878C43.6613 20.6353 43.2583 20.514 42.7123 20.514C42.3396 20.514 41.9713 20.5747 41.6073 20.696C41.252 20.8087 40.9486 20.9647 40.6973 21.164L39.9693 19.747C40.3506 19.4783 40.81 19.2703 41.3473 19.123C41.8846 18.9757 42.4306 18.902 42.9853 18.902C44.0513 18.902 44.879 19.1533 45.4683 19.656C46.0576 20.1587 46.3523 20.943 46.3523 22.009V26H44.4543ZM42.3223 26.104C41.7763 26.104 41.3083 26.013 40.9183 25.831C40.5283 25.6403 40.2293 25.3847 40.0213 25.064C39.8133 24.7433 39.7093 24.3837 39.7093 23.985C39.7093 23.569 39.809 23.205 40.0083 22.893C40.2163 22.581 40.5413 22.3383 40.9833 22.165C41.4253 21.983 42.0016 21.892 42.7123 21.892H44.5713V23.075H42.9333C42.4566 23.075 42.1273 23.153 41.9453 23.309C41.772 23.465 41.6853 23.66 41.6853 23.894C41.6853 24.154 41.785 24.362 41.9843 24.518C42.1923 24.6653 42.474 24.739 42.8293 24.739C43.1673 24.739 43.4706 24.661 43.7393 24.505C44.008 24.3403 44.203 24.102 44.3243 23.79L44.6363 24.726C44.489 25.1767 44.2203 25.519 43.8303 25.753C43.4403 25.987 42.9376 26.104 42.3223 26.104ZM51.7165 26.13C51.1792 26.13 50.6419 26.0737 50.1045 25.961C49.5759 25.8483 49.0862 25.6793 48.6355 25.454L49.1815 24.037C49.5369 24.2103 49.9225 24.3447 50.3385 24.44C50.7632 24.5267 51.1922 24.57 51.6255 24.57C51.9375 24.57 52.2062 24.5397 52.4315 24.479C52.6655 24.4097 52.8432 24.3143 52.9645 24.193C53.0859 24.0717 53.1465 23.9243 53.1465 23.751C53.1465 23.5257 53.0512 23.3567 52.8605 23.244C52.6699 23.1227 52.3925 23.062 52.0285 23.062H50.5985V21.801H51.8595C52.0935 21.801 52.2929 21.775 52.4575 21.723C52.6222 21.671 52.7435 21.5973 52.8215 21.502C52.9082 21.398 52.9515 21.2767 52.9515 21.138C52.9515 20.9907 52.8995 20.865 52.7955 20.761C52.6915 20.657 52.5399 20.579 52.3405 20.527C52.1412 20.4663 51.8899 20.436 51.5865 20.436C51.2399 20.436 50.8802 20.4793 50.5075 20.566C50.1349 20.644 49.7535 20.761 49.3635 20.917L48.8695 19.513C49.3289 19.3223 49.7839 19.1707 50.2345 19.058C50.6852 18.9453 51.1315 18.8847 51.5735 18.876C52.2235 18.8587 52.8085 18.928 53.3285 19.084C53.8485 19.24 54.2559 19.4653 54.5505 19.76C54.8539 20.0547 55.0055 20.4143 55.0055 20.839C55.0055 21.177 54.9015 21.4803 54.6935 21.749C54.4942 22.0177 54.2169 22.23 53.8615 22.386C53.5062 22.5333 53.1075 22.607 52.6655 22.607L52.7175 22.204C53.4889 22.204 54.0955 22.36 54.5375 22.672C54.9795 22.9753 55.2005 23.3913 55.2005 23.92C55.2005 24.3707 55.0445 24.765 54.7325 25.103C54.4292 25.4323 54.0132 25.688 53.4845 25.87C52.9645 26.0433 52.3752 26.13 51.7165 26.13ZM57.9503 26V19.006H59.9653V23.166L63.3713 19.006H65.2303V26H63.2153V21.84L59.8223 26H57.9503ZM68.4798 26V19.006H70.4948V21.736H73.5368V19.006H75.5648V26H73.5368V23.387H70.4948V26H68.4798ZM86.0082 26V19.006H88.0232V26H86.0082ZM82.4852 21.242C83.4039 21.2507 84.0929 21.4587 84.5522 21.866C85.0202 22.2647 85.2542 22.8323 85.2542 23.569C85.2542 24.3403 84.9899 24.9427 84.4612 25.376C83.9325 25.8007 83.1829 26.013 82.2122 26.013L78.8062 26V19.006H80.8212V21.242H82.4852ZM82.0302 24.57C82.4202 24.5787 82.7192 24.4963 82.9272 24.323C83.1352 24.1497 83.2392 23.8897 83.2392 23.543C83.2392 23.1963 83.1352 22.9493 82.9272 22.802C82.7192 22.646 82.4202 22.5637 82.0302 22.555L80.8212 22.542V24.57H82.0302Z" fill="white"/>
</g>
</g>
<defs>
<filter id="filter0_d_72_2" x="2.48328" y="10.9" width="94.5399" height="25.23" filterUnits="userSpaceOnUse" color-interpolation-filters="sRGB">
<feFlood flood-opacity="0" result="BackgroundImageFix"/>
<feColorMatrix in="SourceAlpha" type="matrix" values="0 0 0 0 0 0 0 0 0 0 0 0 0 0 0 0 0 0 127 0" result="hardAlpha"/>
<feOffset dx="1" dy="2"/>
<feGaussianBlur stdDeviation="4"/>
<feComposite in2="hardAlpha" operator="out"/>
<feColorMatrix type="matrix" values="0 0 0 0 0 0 0 0 0 0 0 0 0 0 0 0 0 0 0.25 0"/>
<feBlend mode="normal" in2="BackgroundImageFix" result="effect1_dropShadow_72_2"/>
<feBlend mode="normal" in="SourceGraphic" in2="effect1_dropShadow_72_2" result="shape"/>
</filter>
<linearGradient id="paint0_linear_72_2" x1="3.05176e-05" y1="21.5" x2="192.102" y2="21.5" gradientUnits="userSpaceOnUse">
<stop stop-color="#C93232"/>
<stop offset="1" stop-color="#18635E" stop-opacity="0"/>
</linearGradient>
<linearGradient id="paint1_linear_72_2" x1="210" y1="21.5" x2="0" y2="21.5" gradientUnits="userSpaceOnUse">
<stop stop-color="#FFFFFF"/>
<stop offset="1" stop-color="white" stop-opacity="0"/>
</linearGradient>
<clipPath id="clip0_72_2">
<rect width="210" height="44" fill="white"/>
</clipPath>
</defs>
</svg>
