<svg width="210" height="44" viewBox="0 0 210 44" fill="none" xmlns="http://www.w3.org/2000/svg">
<g clip-path="url(#clip0_72_2)">
<path d="M192.102 6H3.00004C1.34318 6 3.05176e-05 7.34315 3.05176e-05 9V34C3.05176e-05 35.6569 1.34318 37 3.00003 37H192.102V6Z" fill="url(#paint0_linear_72_2)"/>
<path d="M210 21.5C210 12.9396 203.06 6 194.5 6H2.99999C1.34314 6 0 7.34315 0 9V34C0 35.6569 1.34315 37 3 37H194.5C203.06 37 210 30.0604 210 21.5V21.5Z" fill="url(#paint1_linear_72_2)"/>
<path d="M207.375 37.1245H65.625V37.1253H207.375V37.1245Z" fill="white"/>
<g filter="url(#filter0_d_72_2)">
<path d="M11.4463 26V18.135L11.9273 18.616H8.54729V16.9H16.4383V18.616H13.0583L13.5263 18.135V26H11.4463ZM21.4697 26.104C20.7244 26.104 20.0614 25.948 19.4807 25.636C18.9087 25.324 18.4537 24.8993 18.1157 24.362C17.7864 23.816 17.6217 23.1963 17.6217 22.503C17.6217 21.801 17.7864 21.1813 18.1157 20.644C18.4537 20.098 18.9087 19.6733 19.4807 19.37C20.0614 19.058 20.7244 18.902 21.4697 18.902C22.2064 18.902 22.865 19.058 23.4457 19.37C24.0264 19.6733 24.4814 20.0937 24.8107 20.631C25.14 21.1683 25.3047 21.7923 25.3047 22.503C25.3047 23.1963 25.14 23.816 24.8107 24.362C24.4814 24.8993 24.0264 25.324 23.4457 25.636C22.865 25.948 22.2064 26.104 21.4697 26.104ZM21.4697 24.44C21.8077 24.44 22.111 24.362 22.3797 24.206C22.6484 24.05 22.8607 23.829 23.0167 23.543C23.1727 23.2483 23.2507 22.9017 23.2507 22.503C23.2507 22.0957 23.1727 21.749 23.0167 21.463C22.8607 21.177 22.6484 20.956 22.3797 20.8C22.111 20.644 21.8077 20.566 21.4697 20.566C21.1317 20.566 20.8284 20.644 20.5597 20.8C20.291 20.956 20.0744 21.177 19.9097 21.463C19.7537 21.749 19.6757 22.0957 19.6757 22.503C19.6757 22.9017 19.7537 23.2483 19.9097 23.543C20.0744 23.829 20.291 24.05 20.5597 24.206C20.8284 24.362 21.1317 24.44 21.4697 24.44ZM27.9996 26V19.006H34.9546V26H32.9266V20.215L33.3816 20.67H29.5596L30.0146 20.215V26H27.9996ZM46.5086 26.104C45.7546 26.104 45.0829 25.9523 44.4936 25.649C43.9043 25.337 43.4406 24.908 43.1026 24.362C42.7733 23.816 42.6086 23.1963 42.6086 22.503C42.6086 21.801 42.7733 21.1813 43.1026 20.644C43.4406 20.098 43.9043 19.6733 44.4936 19.37C45.0829 19.058 45.7546 18.902 46.5086 18.902C47.2453 18.902 47.8866 19.058 48.4326 19.37C48.9786 19.6733 49.3816 20.111 49.6416 20.683L48.0686 21.528C47.8866 21.1987 47.6569 20.956 47.3796 20.8C47.1109 20.644 46.8163 20.566 46.4956 20.566C46.1489 20.566 45.8369 20.644 45.5596 20.8C45.2823 20.956 45.0613 21.177 44.8966 21.463C44.7406 21.749 44.6626 22.0957 44.6626 22.503C44.6626 22.9103 44.7406 23.257 44.8966 23.543C45.0613 23.829 45.2823 24.05 45.5596 24.206C45.8369 24.362 46.1489 24.44 46.4956 24.44C46.8163 24.44 47.1109 24.3663 47.3796 24.219C47.6569 24.063 47.8866 23.816 48.0686 23.478L49.6416 24.336C49.3816 24.8993 48.9786 25.337 48.4326 25.649C47.8866 25.9523 47.2453 26.104 46.5086 26.104ZM55.5041 26.104C54.7068 26.104 54.0048 25.948 53.3981 25.636C52.8001 25.324 52.3364 24.8993 52.0071 24.362C51.6778 23.816 51.5131 23.1963 51.5131 22.503C51.5131 21.801 51.6734 21.1813 51.9941 20.644C52.3234 20.098 52.7698 19.6733 53.3331 19.37C53.8964 19.058 54.5334 18.902 55.2441 18.902C55.9288 18.902 56.5441 19.0493 57.0901 19.344C57.6448 19.63 58.0824 20.046 58.4031 20.592C58.7238 21.1293 58.8841 21.775 58.8841 22.529C58.8841 22.607 58.8798 22.698 58.8711 22.802C58.8624 22.8973 58.8538 22.9883 58.8451 23.075H53.1641V21.892H57.7791L56.9991 22.243C56.9991 21.879 56.9254 21.5627 56.7781 21.294C56.6308 21.0253 56.4271 20.8173 56.1671 20.67C55.9071 20.514 55.6038 20.436 55.2571 20.436C54.9104 20.436 54.6028 20.514 54.3341 20.67C54.0741 20.8173 53.8704 21.0297 53.7231 21.307C53.5758 21.5757 53.5021 21.8963 53.5021 22.269V22.581C53.5021 22.9623 53.5844 23.3003 53.7491 23.595C53.9224 23.881 54.1608 24.102 54.4641 24.258C54.7761 24.4053 55.1401 24.479 55.5561 24.479C55.9288 24.479 56.2538 24.4227 56.5311 24.31C56.8171 24.1973 57.0771 24.0283 57.3111 23.803L58.3901 24.973C58.0694 25.337 57.6664 25.6187 57.1811 25.818C56.6958 26.0087 56.1368 26.104 55.5041 26.104ZM65.8596 26.104C65.2703 26.104 64.7546 25.974 64.3126 25.714C63.8706 25.454 63.524 25.0597 63.2726 24.531C63.03 23.9937 62.9086 23.3177 62.9086 22.503C62.9086 21.6797 63.0256 21.0037 63.2596 20.475C63.4936 19.9463 63.8316 19.552 64.2736 19.292C64.7156 19.032 65.2443 18.902 65.8596 18.902C66.5183 18.902 67.1076 19.0537 67.6276 19.357C68.1563 19.6517 68.5723 20.0677 68.8756 20.605C69.1876 21.1423 69.3436 21.775 69.3436 22.503C69.3436 23.2397 69.1876 23.8767 68.8756 24.414C68.5723 24.9513 68.1563 25.3673 67.6276 25.662C67.1076 25.9567 66.5183 26.104 65.8596 26.104ZM61.7256 28.522V19.006H63.6626V20.436L63.6236 22.516L63.7536 24.583V28.522H61.7256ZM65.5086 24.44C65.8466 24.44 66.1456 24.362 66.4056 24.206C66.6743 24.05 66.8866 23.829 67.0426 23.543C67.2073 23.2483 67.2896 22.9017 67.2896 22.503C67.2896 22.0957 67.2073 21.749 67.0426 21.463C66.8866 21.177 66.6743 20.956 66.4056 20.8C66.1456 20.644 65.8466 20.566 65.5086 20.566C65.1706 20.566 64.8673 20.644 64.5986 20.8C64.33 20.956 64.1176 21.177 63.9616 21.463C63.8056 21.749 63.7276 22.0957 63.7276 22.503C63.7276 22.9017 63.8056 23.2483 63.9616 23.543C64.1176 23.829 64.33 24.05 64.5986 24.206C64.8673 24.362 65.1706 24.44 65.5086 24.44ZM72.065 26V19.006H75.64C76.5153 19.006 77.2 19.1663 77.694 19.487C78.188 19.799 78.435 20.241 78.435 20.813C78.435 21.385 78.201 21.8357 77.733 22.165C77.2737 22.4857 76.6627 22.646 75.9 22.646L76.108 22.178C76.9573 22.178 77.59 22.334 78.006 22.646C78.4307 22.958 78.643 23.413 78.643 24.011C78.643 24.6263 78.409 25.1117 77.941 25.467C77.473 25.8223 76.758 26 75.796 26H72.065ZM73.924 24.622H75.627C75.9997 24.622 76.277 24.5613 76.459 24.44C76.6497 24.31 76.745 24.115 76.745 23.855C76.745 23.5863 76.6583 23.3913 76.485 23.27C76.3117 23.14 76.0387 23.075 75.666 23.075H73.924V24.622ZM73.924 21.879H75.458C75.8133 21.879 76.0777 21.814 76.251 21.684C76.433 21.554 76.524 21.3677 76.524 21.125C76.524 20.8737 76.433 20.6873 76.251 20.566C76.0777 20.4447 75.8133 20.384 75.458 20.384H73.924V21.879ZM84.8709 26.104C84.0736 26.104 83.3716 25.948 82.7649 25.636C82.1669 25.324 81.7032 24.8993 81.3739 24.362C81.0446 23.816 80.8799 23.1963 80.8799 22.503C80.8799 21.801 81.0402 21.1813 81.3609 20.644C81.6902 20.098 82.1366 19.6733 82.6999 19.37C83.2632 19.058 83.9002 18.902 84.6109 18.902C85.2956 18.902 85.9109 19.0493 86.4569 19.344C87.0116 19.63 87.4492 20.046 87.7699 20.592C88.0906 21.1293 88.2509 21.775 88.2509 22.529C88.2509 22.607 88.2466 22.698 88.2379 22.802C88.2292 22.8973 88.2206 22.9883 88.2119 23.075H82.5309V21.892H87.1459L86.3659 22.243C86.3659 21.879 86.2922 21.5627 86.1449 21.294C85.9976 21.0253 85.7939 20.8173 85.5339 20.67C85.2739 20.514 84.9706 20.436 84.6239 20.436C84.2772 20.436 83.9696 20.514 83.7009 20.67C83.4409 20.8173 83.2372 21.0297 83.0899 21.307C82.9426 21.5757 82.8689 21.8963 82.8689 22.269V22.581C82.8689 22.9623 82.9512 23.3003 83.1159 23.595C83.2892 23.881 83.5276 24.102 83.8309 24.258C84.1429 24.4053 84.5069 24.479 84.9229 24.479C85.2956 24.479 85.6206 24.4227 85.8979 24.31C86.1839 24.1973 86.4439 24.0283 86.6779 23.803L87.7569 24.973C87.4362 25.337 87.0332 25.6187 86.5479 25.818C86.0626 26.0087 85.5036 26.104 84.8709 26.104ZM95.2264 26.104C94.6371 26.104 94.1214 25.974 93.6794 25.714C93.2374 25.454 92.8908 25.0597 92.6394 24.531C92.3968 23.9937 92.2754 23.3177 92.2754 22.503C92.2754 21.6797 92.3924 21.0037 92.6264 20.475C92.8604 19.9463 93.1984 19.552 93.6404 19.292C94.0824 19.032 94.6111 18.902 95.2264 18.902C95.8851 18.902 96.4744 19.0537 96.9944 19.357C97.5231 19.6517 97.9391 20.0677 98.2424 20.605C98.5544 21.1423 98.7104 21.775 98.7104 22.503C98.7104 23.2397 98.5544 23.8767 98.2424 24.414C97.9391 24.9513 97.5231 25.3673 96.9944 25.662C96.4744 25.9567 95.8851 26.104 95.2264 26.104ZM91.0924 28.522V19.006H93.0294V20.436L92.9904 22.516L93.1204 24.583V28.522H91.0924ZM94.8754 24.44C95.2134 24.44 95.5124 24.362 95.7724 24.206C96.0411 24.05 96.2534 23.829 96.4094 23.543C96.5741 23.2483 96.6564 22.9017 96.6564 22.503C96.6564 22.0957 96.5741 21.749 96.4094 21.463C96.2534 21.177 96.0411 20.956 95.7724 20.8C95.5124 20.644 95.2134 20.566 94.8754 20.566C94.5374 20.566 94.2341 20.644 93.9654 20.8C93.6968 20.956 93.4844 21.177 93.3284 21.463C93.1724 21.749 93.0944 22.0957 93.0944 22.503C93.0944 22.9017 93.1724 23.2483 93.3284 23.543C93.4844 23.829 93.6968 24.05 93.9654 24.206C94.2341 24.362 94.5374 24.44 94.8754 24.44ZM105.504 26V24.635L105.374 24.336V21.892C105.374 21.4587 105.239 21.1207 104.971 20.878C104.711 20.6353 104.308 20.514 103.762 20.514C103.389 20.514 103.021 20.5747 102.657 20.696C102.301 20.8087 101.998 20.9647 101.747 21.164L101.019 19.747C101.4 19.4783 101.859 19.2703 102.397 19.123C102.934 18.9757 103.48 18.902 104.035 18.902C105.101 18.902 105.928 19.1533 106.518 19.656C107.107 20.1587 107.402 20.943 107.402 22.009V26H105.504ZM103.372 26.104C102.826 26.104 102.358 26.013 101.968 25.831C101.578 25.6403 101.279 25.3847 101.071 25.064C100.863 24.7433 100.759 24.3837 100.759 23.985C100.759 23.569 100.858 23.205 101.058 22.893C101.266 22.581 101.591 22.3383 102.033 22.165C102.475 21.983 103.051 21.892 103.762 21.892H105.621V23.075H103.983C103.506 23.075 103.177 23.153 102.995 23.309C102.821 23.465 102.735 23.66 102.735 23.894C102.735 24.154 102.834 24.362 103.034 24.518C103.242 24.6653 103.523 24.739 103.879 24.739C104.217 24.739 104.52 24.661 104.789 24.505C105.057 24.3403 105.252 24.102 105.374 23.79L105.686 24.726C105.538 25.1767 105.27 25.519 104.88 25.753C104.49 25.987 103.987 26.104 103.372 26.104Z" fill="white"/>
</g>
</g>
<defs>
<filter id="filter0_d_72_2" x="1.54724" y="10.9" width="114.854" height="27.622" filterUnits="userSpaceOnUse" color-interpolation-filters="sRGB">
<feFlood flood-opacity="0" result="BackgroundImageFix"/>
<feColorMatrix in="SourceAlpha" type="matrix" values="0 0 0 0 0 0 0 0 0 0 0 0 0 0 0 0 0 0 127 0" result="hardAlpha"/>
<feOffset dx="1" dy="2"/>
<feGaussianBlur stdDeviation="4"/>
<feComposite in2="hardAlpha" operator="out"/>
<feColorMatrix type="matrix" values="0 0 0 0 0 0 0 0 0 0 0 0 0 0 0 0 0 0 0.25 0"/>
<feBlend mode="normal" in2="BackgroundImageFix" result="effect1_dropShadow_72_2"/>
<feBlend mode="normal" in="SourceGraphic" in2="effect1_dropShadow_72_2" result="shape"/>
</filter>
<linearGradient id="paint0_linear_72_2" x1="3.05176e-05" y1="21.5" x2="192.102" y2="21.5" gradientUnits="userSpaceOnUse">
<stop stop-color="#C432C9"/>
<stop offset="1" stop-color="#18635E" stop-opacity="0"/>
</linearGradient>
<linearGradient id="paint1_linear_72_2" x1="210" y1="21.5" x2="0" y2="21.5" gradientUnits="userSpaceOnUse">
<stop stop-color="#FFFFFF"/>
<stop offset="1" stop-color="white" stop-opacity="0"/>
</linearGradient>
<clipPath id="clip0_72_2">
<rect width="210" height="44" fill="white"/>
</clipPath>
</defs>
</svg>
