<svg width="210" height="44" viewBox="0 0 210 44" fill="none" xmlns="http://www.w3.org/2000/svg">
<g clip-path="url(#clip0_72_2)">
<path d="M192.102 6H3.00003C1.34319 6 3.05176e-05 7.34315 3.05176e-05 9V34C3.05176e-05 35.6569 1.34317 37 3.00003 37H192.102V6Z" fill="url(#paint0_linear_72_2)"/>
<path d="M210 21.5C210 12.9396 203.06 6 194.5 6H3C1.34314 6 0 7.34315 0 9V34C0 35.6569 1.34314 37 3 37H194.5C203.06 37 210 30.0604 210 21.5Z" fill="url(#paint1_linear_72_2)"/>
<path d="M207.375 37.1245H65.625V37.1253H207.375V37.1245Z" fill="white"/>
<g filter="url(#filter0_d_72_2)">
<path d="M9.48329 26V16.9H15.9053L15.8923 18.616H11.0823L11.5633 18.135L11.5763 26H9.48329ZM15.6085 25.987L15.7125 24.323C15.7645 24.3317 15.8165 24.3403 15.8685 24.349C15.9205 24.349 15.9682 24.349 16.0115 24.349C16.2542 24.349 16.4449 24.2797 16.5835 24.141C16.7222 24.0023 16.8262 23.816 16.8955 23.582C16.9649 23.3393 17.0125 23.0663 17.0385 22.763C17.0732 22.4597 17.0992 22.1433 17.1165 21.814L17.2205 19.006H23.2005V26H21.1725V20.176L21.6275 20.67H18.5595L18.9885 20.15L18.8975 21.905C18.8715 22.529 18.8195 23.101 18.7415 23.621C18.6722 24.141 18.5552 24.5917 18.3905 24.973C18.2259 25.3457 18.0049 25.636 17.7275 25.844C17.4502 26.0433 17.0949 26.143 16.6615 26.143C16.5055 26.143 16.3409 26.13 16.1675 26.104C15.9942 26.078 15.8079 26.039 15.6085 25.987ZM30.6367 26V24.635L30.5067 24.336V21.892C30.5067 21.4587 30.3724 21.1207 30.1037 20.878C29.8437 20.6353 29.4407 20.514 28.8947 20.514C28.5221 20.514 28.1537 20.5747 27.7897 20.696C27.4344 20.8087 27.1311 20.9647 26.8797 21.164L26.1517 19.747C26.5331 19.4783 26.9924 19.2703 27.5297 19.123C28.0671 18.9757 28.6131 18.902 29.1677 18.902C30.2337 18.902 31.0614 19.1533 31.6507 19.656C32.2401 20.1587 32.5347 20.943 32.5347 22.009V26H30.6367ZM28.5047 26.104C27.9587 26.104 27.4907 26.013 27.1007 25.831C26.7107 25.6403 26.4117 25.3847 26.2037 25.064C25.9957 24.7433 25.8917 24.3837 25.8917 23.985C25.8917 23.569 25.9914 23.205 26.1907 22.893C26.3987 22.581 26.7237 22.3383 27.1657 22.165C27.6077 21.983 28.1841 21.892 28.8947 21.892H30.7537V23.075H29.1157C28.6391 23.075 28.3097 23.153 28.1277 23.309C27.9544 23.465 27.8677 23.66 27.8677 23.894C27.8677 24.154 27.9674 24.362 28.1667 24.518C28.3747 24.6653 28.6564 24.739 29.0117 24.739C29.3497 24.739 29.6531 24.661 29.9217 24.505C30.1904 24.3403 30.3854 24.102 30.5067 23.79L30.8187 24.726C30.6714 25.1767 30.4027 25.519 30.0127 25.753C29.6227 25.987 29.1201 26.104 28.5047 26.104ZM35.5964 26V19.006H39.1714C40.0468 19.006 40.7314 19.1663 41.2254 19.487C41.7194 19.799 41.9664 20.241 41.9664 20.813C41.9664 21.385 41.7324 21.8357 41.2644 22.165C40.8051 22.4857 40.1941 22.646 39.4314 22.646L39.6394 22.178C40.4888 22.178 41.1214 22.334 41.5374 22.646C41.9621 22.958 42.1744 23.413 42.1744 24.011C42.1744 24.6263 41.9404 25.1117 41.4724 25.467C41.0044 25.8223 40.2894 26 39.3274 26H35.5964ZM37.4554 24.622H39.1584C39.5311 24.622 39.8084 24.5613 39.9904 24.44C40.1811 24.31 40.2764 24.115 40.2764 23.855C40.2764 23.5863 40.1898 23.3913 40.0164 23.27C39.8431 23.14 39.5701 23.075 39.1974 23.075H37.4554V24.622ZM37.4554 21.879H38.9894C39.3448 21.879 39.6091 21.814 39.7824 21.684C39.9644 21.554 40.0554 21.3677 40.0554 21.125C40.0554 20.8737 39.9644 20.6873 39.7824 20.566C39.6091 20.4447 39.3448 20.384 38.9894 20.384H37.4554V21.879ZM44.9834 26V19.006H46.9984V21.736H50.0404V19.006H52.0684V26H50.0404V23.387H46.9984V26H44.9834ZM59.4957 26V24.635L59.3657 24.336V21.892C59.3657 21.4587 59.2314 21.1207 58.9627 20.878C58.7027 20.6353 58.2997 20.514 57.7537 20.514C57.3811 20.514 57.0127 20.5747 56.6487 20.696C56.2934 20.8087 55.9901 20.9647 55.7387 21.164L55.0107 19.747C55.3921 19.4783 55.8514 19.2703 56.3887 19.123C56.9261 18.9757 57.4721 18.902 58.0267 18.902C59.0927 18.902 59.9204 19.1533 60.5097 19.656C61.0991 20.1587 61.3937 20.943 61.3937 22.009V26H59.4957ZM57.3637 26.104C56.8177 26.104 56.3497 26.013 55.9597 25.831C55.5697 25.6403 55.2707 25.3847 55.0627 25.064C54.8547 24.7433 54.7507 24.3837 54.7507 23.985C54.7507 23.569 54.8504 23.205 55.0497 22.893C55.2577 22.581 55.5827 22.3383 56.0247 22.165C56.4667 21.983 57.0431 21.892 57.7537 21.892H59.6127V23.075H57.9747C57.4981 23.075 57.1687 23.153 56.9867 23.309C56.8134 23.465 56.7267 23.66 56.7267 23.894C56.7267 24.154 56.8264 24.362 57.0257 24.518C57.2337 24.6653 57.5154 24.739 57.8707 24.739C58.2087 24.739 58.5121 24.661 58.7807 24.505C59.0494 24.3403 59.2444 24.102 59.3657 23.79L59.6777 24.726C59.5304 25.1767 59.2617 25.519 58.8717 25.753C58.4817 25.987 57.9791 26.104 57.3637 26.104ZM68.8624 26V23.673L69.1484 23.998H67.2114C66.2061 23.998 65.4174 23.79 64.8454 23.374C64.2734 22.958 63.9874 22.36 63.9874 21.58C63.9874 20.748 64.2864 20.111 64.8844 19.669C65.4911 19.227 66.3058 19.006 67.3284 19.006H70.6694V26H68.8624ZM63.8834 26L65.7424 23.335H67.8094L66.0414 26H63.8834ZM68.8624 23.049V20.137L69.1484 20.657H67.3674C66.9514 20.657 66.6264 20.735 66.3924 20.891C66.1671 21.047 66.0544 21.2983 66.0544 21.645C66.0544 22.3123 66.4834 22.646 67.3414 22.646H69.1484L68.8624 23.049Z" fill="white"/>
</g>
</g>
<defs>
<filter id="filter0_d_72_2" x="2.48328" y="10.9" width="77.1862" height="25.243" filterUnits="userSpaceOnUse" color-interpolation-filters="sRGB">
<feFlood flood-opacity="0" result="BackgroundImageFix"/>
<feColorMatrix in="SourceAlpha" type="matrix" values="0 0 0 0 0 0 0 0 0 0 0 0 0 0 0 0 0 0 127 0" result="hardAlpha"/>
<feOffset dx="1" dy="2"/>
<feGaussianBlur stdDeviation="4"/>
<feComposite in2="hardAlpha" operator="out"/>
<feColorMatrix type="matrix" values="0 0 0 0 0 0 0 0 0 0 0 0 0 0 0 0 0 0 0.25 0"/>
<feBlend mode="normal" in2="BackgroundImageFix" result="effect1_dropShadow_72_2"/>
<feBlend mode="normal" in="SourceGraphic" in2="effect1_dropShadow_72_2" result="shape"/>
</filter>
<linearGradient id="paint0_linear_72_2" x1="3.05176e-05" y1="21.5" x2="192.102" y2="21.5" gradientUnits="userSpaceOnUse">
<stop stop-color="#E27354"/>
<stop offset="1" stop-color="#18635E" stop-opacity="0"/>
</linearGradient>
<linearGradient id="paint1_linear_72_2" x1="210" y1="21.5" x2="0" y2="21.5" gradientUnits="userSpaceOnUse">
<stop stop-color="white"/>
<stop offset="1" stop-color="white" stop-opacity="0"/>
</linearGradient>
<clipPath id="clip0_72_2">
<rect width="210" height="44" fill="white"/>
</clipPath>
</defs>
</svg>
