<svg width="210" height="44" viewBox="0 0 210 44" fill="none" xmlns="http://www.w3.org/2000/svg">
<g clip-path="url(#clip0_72_2)">
<path d="M192.102 6H3.00004C1.34318 6 3.05176e-05 7.34315 3.05176e-05 9V34C3.05176e-05 35.6569 1.34318 37 3.00003 37H192.102V6Z" fill="url(#paint0_linear_72_2)"/>
<path d="M210 21.5C210 12.9396 203.06 6 194.5 6H2.99999C1.34314 6 0 7.34315 0 9V34C0 35.6569 1.34315 37 3 37H194.5C203.06 37 210 30.0604 210 21.5V21.5Z" fill="url(#paint1_linear_72_2)"/>
<path d="M207.375 37.1245H65.625V37.1253H207.375V37.1245Z" fill="white"/>
<g filter="url(#filter0_d_72_2)">
<path d="M15.3723 26L12.5383 21.619L14.2413 20.592L17.7643 26H15.3723ZM9.45729 26V16.9H11.5503V26H9.45729ZM10.9393 22.334V20.579H14.1113V22.334H10.9393ZM14.4363 21.684L12.4993 21.45L15.4503 16.9H17.6733L14.4363 21.684ZM23.0693 26.104C22.324 26.104 21.661 25.948 21.0803 25.636C20.5083 25.324 20.0533 24.8993 19.7153 24.362C19.386 23.816 19.2213 23.1963 19.2213 22.503C19.2213 21.801 19.386 21.1813 19.7153 20.644C20.0533 20.098 20.5083 19.6733 21.0803 19.37C21.661 19.058 22.324 18.902 23.0693 18.902C23.806 18.902 24.4646 19.058 25.0453 19.37C25.626 19.6733 26.081 20.0937 26.4103 20.631C26.7396 21.1683 26.9043 21.7923 26.9043 22.503C26.9043 23.1963 26.7396 23.816 26.4103 24.362C26.081 24.8993 25.626 25.324 25.0453 25.636C24.4646 25.948 23.806 26.104 23.0693 26.104ZM23.0693 24.44C23.4073 24.44 23.7106 24.362 23.9793 24.206C24.248 24.05 24.4603 23.829 24.6163 23.543C24.7723 23.2483 24.8503 22.9017 24.8503 22.503C24.8503 22.0957 24.7723 21.749 24.6163 21.463C24.4603 21.177 24.248 20.956 23.9793 20.8C23.7106 20.644 23.4073 20.566 23.0693 20.566C22.7313 20.566 22.428 20.644 22.1593 20.8C21.8906 20.956 21.674 21.177 21.5093 21.463C21.3533 21.749 21.2753 22.0957 21.2753 22.503C21.2753 22.9017 21.3533 23.2483 21.5093 23.543C21.674 23.829 21.8906 24.05 22.1593 24.206C22.428 24.362 22.7313 24.44 23.0693 24.44ZM29.5992 26V19.006H31.7182L34.3572 23.79H33.5122L36.3332 19.006H38.2312L38.2572 26H36.4242V21.086L36.7362 21.294L34.3312 25.324H33.4732L31.0552 21.151L31.4322 21.06V26H29.5992ZM45.6858 26V24.635L45.5558 24.336V21.892C45.5558 21.4587 45.4214 21.1207 45.1528 20.878C44.8928 20.6353 44.4898 20.514 43.9438 20.514C43.5711 20.514 43.2028 20.5747 42.8388 20.696C42.4834 20.8087 42.1801 20.9647 41.9288 21.164L41.2008 19.747C41.5821 19.4783 42.0414 19.2703 42.5788 19.123C43.1161 18.9757 43.6621 18.902 44.2168 18.902C45.2828 18.902 46.1104 19.1533 46.6998 19.656C47.2891 20.1587 47.5838 20.943 47.5838 22.009V26H45.6858ZM43.5538 26.104C43.0078 26.104 42.5398 26.013 42.1498 25.831C41.7598 25.6403 41.4608 25.3847 41.2528 25.064C41.0448 24.7433 40.9408 24.3837 40.9408 23.985C40.9408 23.569 41.0404 23.205 41.2398 22.893C41.4478 22.581 41.7728 22.3383 42.2148 22.165C42.6568 21.983 43.2331 21.892 43.9438 21.892H45.8028V23.075H44.1648C43.6881 23.075 43.3588 23.153 43.1768 23.309C43.0034 23.465 42.9168 23.66 42.9168 23.894C42.9168 24.154 43.0164 24.362 43.2158 24.518C43.4238 24.6653 43.7054 24.739 44.0608 24.739C44.3988 24.739 44.7021 24.661 44.9708 24.505C45.2394 24.3403 45.4344 24.102 45.5558 23.79L45.8678 24.726C45.7204 25.1767 45.4518 25.519 45.0618 25.753C44.6718 25.987 44.1691 26.104 43.5538 26.104ZM50.6455 26V19.006H52.6605V21.736H55.7025V19.006H57.7305V26H55.7025V23.387H52.6605V26H50.6455ZM65.7818 25.09V20.67H63.4938L63.4548 21.567C63.4375 21.9397 63.4158 22.295 63.3898 22.633C63.3638 22.971 63.3118 23.2787 63.2338 23.556C63.1645 23.8247 63.0605 24.0543 62.9218 24.245C62.7832 24.427 62.5968 24.5527 62.3628 24.622L60.3608 24.336C60.6122 24.336 60.8158 24.2623 60.9718 24.115C61.1278 23.959 61.2492 23.7467 61.3358 23.478C61.4225 23.2007 61.4875 22.8887 61.5308 22.542C61.5742 22.1867 61.6045 21.814 61.6218 21.424L61.7128 19.006H67.8098V25.09H65.7818ZM60.1268 27.508V24.336H68.8108V27.508H66.9258V26H62.0118V27.508H60.1268ZM78.5891 26V19.006H80.6041V26H78.5891ZM75.0661 21.242C75.9847 21.2507 76.6737 21.4587 77.1331 21.866C77.6011 22.2647 77.8351 22.8323 77.8351 23.569C77.8351 24.3403 77.5707 24.9427 77.0421 25.376C76.5134 25.8007 75.7637 26.013 74.7931 26.013L71.3871 26V19.006H73.4021V21.242H75.0661ZM74.6111 24.57C75.0011 24.5787 75.3001 24.4963 75.5081 24.323C75.7161 24.1497 75.8201 23.8897 75.8201 23.543C75.8201 23.1963 75.7161 22.9493 75.5081 22.802C75.3001 22.646 75.0011 22.5637 74.6111 22.555L73.4021 22.542V24.57H74.6111ZM87.4366 27.3L91.7266 15.054H93.5336L89.2436 27.3H87.4366ZM103.541 26.104C102.787 26.104 102.115 25.9523 101.526 25.649C100.937 25.337 100.473 24.908 100.135 24.362C99.8057 23.816 99.641 23.1963 99.641 22.503C99.641 21.801 99.8057 21.1813 100.135 20.644C100.473 20.098 100.937 19.6733 101.526 19.37C102.115 19.058 102.787 18.902 103.541 18.902C104.278 18.902 104.919 19.058 105.465 19.37C106.011 19.6733 106.414 20.111 106.674 20.683L105.101 21.528C104.919 21.1987 104.689 20.956 104.412 20.8C104.143 20.644 103.849 20.566 103.528 20.566C103.181 20.566 102.869 20.644 102.592 20.8C102.315 20.956 102.094 21.177 101.929 21.463C101.773 21.749 101.695 22.0957 101.695 22.503C101.695 22.9103 101.773 23.257 101.929 23.543C102.094 23.829 102.315 24.05 102.592 24.206C102.869 24.362 103.181 24.44 103.528 24.44C103.849 24.44 104.143 24.3663 104.412 24.219C104.689 24.063 104.919 23.816 105.101 23.478L106.674 24.336C106.414 24.8993 106.011 25.337 105.465 25.649C104.919 25.9523 104.278 26.104 103.541 26.104ZM110.689 26V20.202L111.144 20.67H108.323V19.006H115.07V20.67H112.249L112.704 20.202V26H110.689ZM118.438 28.626C118.074 28.626 117.714 28.5697 117.359 28.457C117.003 28.3443 116.713 28.1883 116.488 27.989L117.229 26.546C117.385 26.6847 117.562 26.793 117.762 26.871C117.97 26.949 118.173 26.988 118.373 26.988C118.659 26.988 118.884 26.9187 119.049 26.78C119.222 26.65 119.378 26.429 119.517 26.117L119.881 25.259L120.037 25.038L122.546 19.006H124.496L121.337 26.429C121.111 26.9923 120.851 27.4343 120.557 27.755C120.271 28.0757 119.95 28.301 119.595 28.431C119.248 28.561 118.862 28.626 118.438 28.626ZM119.634 26.273L116.514 19.006H118.607L121.025 24.856L119.634 26.273ZM131.089 25.09V20.67H128.801L128.762 21.567C128.745 21.9397 128.723 22.295 128.697 22.633C128.671 22.971 128.619 23.2787 128.541 23.556C128.472 23.8247 128.368 24.0543 128.229 24.245C128.09 24.427 127.904 24.5527 127.67 24.622L125.668 24.336C125.919 24.336 126.123 24.2623 126.279 24.115C126.435 23.959 126.556 23.7467 126.643 23.478C126.73 23.2007 126.795 22.8887 126.838 22.542C126.881 22.1867 126.912 21.814 126.929 21.424L127.02 19.006H133.117V25.09H131.089ZM125.434 27.508V24.336H134.118V27.508H132.233V26H127.319V27.508H125.434ZM136.694 26V19.006H138.709V23.166L142.115 19.006H143.974V26H141.959V21.84L138.566 26H136.694ZM147.224 26V19.006H149.239V23.166L152.645 19.006H154.504V26H152.489V21.84L149.096 26H147.224Z" fill="white"/>
</g>
</g>
<defs>
<filter id="filter0_d_72_2" x="2.45728" y="9.054" width="161.047" height="29.572" filterUnits="userSpaceOnUse" color-interpolation-filters="sRGB">
<feFlood flood-opacity="0" result="BackgroundImageFix"/>
<feColorMatrix in="SourceAlpha" type="matrix" values="0 0 0 0 0 0 0 0 0 0 0 0 0 0 0 0 0 0 127 0" result="hardAlpha"/>
<feOffset dx="1" dy="2"/>
<feGaussianBlur stdDeviation="4"/>
<feComposite in2="hardAlpha" operator="out"/>
<feColorMatrix type="matrix" values="0 0 0 0 0 0 0 0 0 0 0 0 0 0 0 0 0 0 0.25 0"/>
<feBlend mode="normal" in2="BackgroundImageFix" result="effect1_dropShadow_72_2"/>
<feBlend mode="normal" in="SourceGraphic" in2="effect1_dropShadow_72_2" result="shape"/>
</filter>
<linearGradient id="paint0_linear_72_2" x1="3.05176e-05" y1="21.5" x2="192.102" y2="21.5" gradientUnits="userSpaceOnUse">
<stop stop-color="#C9C432"/>
<stop offset="1" stop-color="#18635E" stop-opacity="0"/>
</linearGradient>
<linearGradient id="paint1_linear_72_2" x1="210" y1="21.5" x2="0" y2="21.5" gradientUnits="userSpaceOnUse">
<stop stop-color="#CDD1D1"/>
<stop offset="1" stop-color="white" stop-opacity="0"/>
</linearGradient>
<clipPath id="clip0_72_2">
<rect width="210" height="44" fill="white"/>
</clipPath>
</defs>
</svg>
